<?xml version="1.0" standalone="no"?>
<!DOCTYPE svg PUBLIC "-//W3C//DTD SVG 20010904//EN"
 "http://www.w3.org/TR/2001/REC-SVG-20010904/DTD/svg10.dtd">
<svg version="1.0" xmlns="http://www.w3.org/2000/svg"
 width="1600.000000pt" height="1600.000000pt" viewBox="0 0 1600.000000 1600.000000"
 preserveAspectRatio="xMidYMid meet">
<metadata>
Created by potrace 1.14, written by Peter Selinger 2001-2017
</metadata>
<g transform="translate(0.000000,1600.000000) scale(0.100000,-0.100000)"
fill="#000000" stroke="none">
<path d="M7668 15995 c-2 -1 -61 -6 -133 -9 -71 -4 -148 -9 -170 -11 -22 -2
-74 -6 -116 -10 -42 -3 -85 -7 -95 -9 -11 -2 -50 -7 -89 -11 -38 -4 -77 -8
-85 -10 -8 -1 -42 -6 -75 -9 -72 -9 -115 -15 -135 -21 -8 -2 -37 -7 -65 -10
-27 -4 -57 -8 -65 -10 -8 -2 -31 -7 -50 -10 -95 -15 -384 -76 -485 -102 -33
-8 -68 -17 -77 -18 -27 -6 -203 -54 -298 -81 -172 -51 -578 -191 -675 -234
-11 -4 -56 -23 -100 -40 -44 -18 -108 -45 -143 -61 -35 -16 -65 -29 -67 -29
-6 0 -201 -92 -327 -155 -407 -204 -831 -466 -1207 -748 -143 -107 -401 -313
-421 -336 -3 -4 -21 -19 -40 -35 -131 -107 -527 -494 -670 -655 -41 -47 -86
-96 -99 -110 -12 -14 -39 -46 -60 -70 -20 -24 -43 -51 -51 -61 -168 -196 -369
-467 -540 -725 -51 -77 -101 -152 -111 -167 -11 -15 -19 -32 -19 -38 0 -5 -4
-10 -10 -10 -5 0 -10 -4 -10 -9 0 -5 -23 -46 -50 -90 -28 -44 -50 -85 -50 -91
0 -5 -4 -10 -8 -10 -4 0 -13 -12 -19 -27 -7 -16 -23 -46 -36 -68 -88 -149
-252 -477 -347 -695 -18 -41 -40 -93 -50 -115 -100 -230 -293 -792 -345 -1005
-2 -8 -19 -78 -39 -155 -19 -77 -53 -228 -75 -335 -42 -209 -45 -226 -61 -337
-6 -39 -13 -82 -15 -94 -3 -12 -7 -43 -10 -68 -3 -25 -7 -59 -9 -76 -2 -16 -7
-50 -10 -75 -4 -25 -8 -65 -11 -90 -2 -25 -6 -74 -10 -110 -3 -36 -8 -83 -10
-106 -27 -293 -27 -1040 0 -1279 3 -22 7 -72 10 -112 3 -39 7 -86 9 -105 3
-18 8 -60 11 -93 4 -32 8 -66 10 -75 1 -8 6 -40 9 -71 4 -31 9 -67 11 -80 3
-13 7 -41 10 -64 3 -22 8 -51 10 -65 5 -26 10 -59 21 -125 3 -22 7 -42 9 -45
2 -3 6 -26 10 -50 6 -43 21 -113 67 -315 39 -171 119 -459 179 -639 74 -227
95 -283 199 -546 108 -270 304 -674 449 -925 25 -44 51 -88 56 -98 72 -127
296 -474 394 -607 59 -82 197 -265 218 -290 6 -8 45 -56 86 -107 40 -50 98
-119 128 -154 49 -57 79 -91 204 -229 98 -109 450 -454 561 -551 144 -124 318
-269 409 -339 525 -408 1152 -779 1733 -1026 17 -8 49 -21 70 -30 70 -30 77
-33 147 -59 39 -15 84 -33 100 -40 82 -35 427 -152 590 -200 252 -74 714 -182
852 -199 18 -3 36 -7 40 -9 4 -3 31 -7 58 -11 28 -3 61 -8 75 -11 14 -3 43 -7
65 -10 22 -2 54 -6 70 -9 17 -2 53 -7 80 -10 28 -4 68 -9 90 -12 46 -6 91 -10
190 -19 39 -4 86 -8 105 -11 222 -26 983 -25 1270 1 19 2 71 6 115 9 44 3 96
8 115 11 19 2 54 7 78 10 23 3 61 7 85 10 126 16 201 26 207 30 3 2 30 6 60
10 30 3 62 8 70 10 8 2 31 7 50 10 95 15 384 76 485 102 33 8 68 17 77 18 77
15 442 123 593 176 50 17 95 32 100 33 6 2 17 6 25 9 8 4 52 20 98 37 103 37
374 148 462 188 36 16 88 39 115 52 261 117 703 360 930 511 33 21 68 42 78
45 9 4 17 10 17 15 0 5 6 9 14 9 8 0 16 3 18 8 2 4 52 41 113 81 99 68 383
276 395 290 3 3 23 19 45 36 22 16 51 39 65 51 14 12 72 61 130 110 105 88
126 106 249 219 151 137 466 460 587 601 28 32 80 93 116 134 63 73 278 345
308 390 8 12 20 28 25 34 6 6 45 61 87 121 43 61 82 115 88 122 5 7 10 15 10
18 0 3 20 33 43 68 45 64 237 373 237 381 0 2 17 33 38 67 136 226 341 651
473 981 88 219 232 639 254 738 2 8 4 15 5 15 1 0 3 7 5 15 1 8 17 68 35 133
17 64 33 126 36 137 2 11 6 28 8 38 21 84 60 260 80 367 34 176 35 180 47 262
5 39 12 82 14 94 3 12 7 43 10 68 3 25 7 60 9 76 2 17 7 50 10 75 4 25 8 65
11 90 2 25 6 74 10 110 3 36 8 83 10 106 27 293 27 995 0 1276 -2 24 -6 75 -9
115 -3 39 -8 86 -10 105 -3 18 -8 60 -11 93 -4 32 -8 66 -10 75 -1 8 -6 40 -9
71 -4 31 -9 67 -11 80 -3 13 -7 41 -10 64 -3 22 -8 51 -10 65 -3 14 -7 39 -9
55 -11 70 -17 101 -21 115 -2 8 -7 31 -10 50 -10 61 -47 231 -77 355 -17 66
-31 127 -33 135 -2 8 -10 40 -18 70 -8 30 -25 90 -36 132 -24 87 -127 405
-167 513 -156 423 -318 777 -537 1175 -101 184 -307 509 -458 725 -46 65 -250
337 -259 345 -3 3 -35 41 -70 85 -36 44 -69 85 -75 91 -5 6 -26 31 -47 55
-148 179 -506 548 -687 709 -46 41 -96 87 -112 101 -15 14 -49 44 -75 65 -26
21 -52 44 -58 49 -6 6 -47 39 -91 75 -44 35 -82 67 -85 70 -8 10 -281 214
-345 259 -99 69 -356 241 -360 241 -3 0 -35 20 -72 44 -302 194 -828 460
-1190 602 -65 25 -131 52 -148 59 -86 37 -429 153 -590 200 -278 82 -666 171
-915 211 -14 2 -41 7 -60 11 -19 3 -44 7 -55 8 -11 1 -40 5 -64 10 -24 4 -58
9 -75 11 -17 1 -67 8 -111 13 -44 6 -105 13 -135 16 -30 3 -73 7 -95 10 -58 6
-180 16 -260 22 -80 5 -822 13 -827 8z"/>
</g>
</svg>
